<svg xmlns="http://www.w3.org/2000/svg" fill="none" viewBox="0 0 96 96">
  <g clip-path="url(#groq-0)">
    <path d="M0 0H96V96H0V0Z" fill="#F55036" />
    <path fill-rule="evenodd" clip-rule="evenodd" d="M48.0881 23.6257C38.6966 23.5404 31.0259 30.9381 30.9381 40.1541C30.8528 49.3726 38.3846 56.9044 47.7761 56.9897H53.6748V50.7351H48.0881C42.2211 50.8033 37.412 46.1867 37.3438 40.4246C37.2731 34.6673 41.9773 29.9484 47.8443 29.8802H48.0881C53.955 29.8802 58.7105 34.548 58.7275 40.3076V55.6758C58.7275 61.3843 53.9891 66.035 48.1904 66.1057C45.4236 66.0862 42.7727 64.9919 40.7977 63.054L36.2859 67.4852C39.4326 70.5759 43.6592 72.3309 48.071 72.3748H48.2952C57.5649 72.2383 65.0114 64.8602 65.0625 55.7611V39.9177C64.8358 30.8479 57.3041 23.6257 48.0881 23.6257Z" fill="white" />
  </g>
  <defs>
    <clipPath id="groq-0">
      <rect width="96" height="96" fill="white" />
    </clipPath>
  </defs>
</svg>
