<svg xmlns="http://www.w3.org/2000/svg" fill="none" viewBox="0 0 96 96">
  <g clip-path="url(#together-0)">
    <path d="M0 0H96V96H0V0Z" fill="#EEEEEE" />
    <g clip-path="url(#together-1)">
      <path d="M72.2602 31.7564C71.4065 30.2777 70.27 28.9817 68.9154 27.9423C67.5609 26.9029 66.0149 26.1405 64.3656 25.6987C62.7164 25.2568 60.9963 25.1442 59.3035 25.3672C57.6108 25.5902 55.9785 26.1445 54.5 26.9984C52.6035 28.0867 51.0137 29.6377 49.8789 31.5068C48.7442 33.3758 48.1015 35.5019 48.0108 37.6866L61.0022 37.7039V38.8197H48.0108C48.0953 40.8499 48.6565 42.8714 49.7442 44.7564C50.5805 46.2676 51.7095 47.5969 53.0653 48.6669C54.4211 49.7368 55.9766 50.5258 57.6408 50.9879C59.3049 51.4499 61.0445 51.5758 62.7579 51.358C64.4712 51.1402 66.124 50.5832 67.6197 49.7194C69.1153 48.8557 70.4239 47.7026 71.4689 46.3275C72.5139 44.9524 73.2745 43.3829 73.7061 41.7105C74.1377 40.0382 74.2318 38.2966 73.9828 36.5875C73.7338 34.8784 73.1467 33.2361 72.2558 31.7564H72.2602Z" fill="#EF2CC1" />
      <path d="M23.7442 31.7502C22.8902 33.2286 22.3358 34.8607 22.1126 36.5534C21.8894 38.2461 22.0019 39.9661 22.4435 41.6153C22.8851 43.2645 23.6473 44.8106 24.6865 46.1652C25.7257 47.5199 27.0215 48.6566 28.5 49.5104C30.3908 50.6089 32.5292 51.2103 34.7154 51.2584C36.9016 51.3065 39.0644 50.7998 41.0017 49.7855L34.5212 38.5254L35.4875 37.9685L41.981 49.2179C43.643 48.1598 45.0427 46.7378 46.0745 45.0593C47.1062 43.3809 47.7429 41.4899 47.9366 39.5292C48.1302 37.5686 47.8757 35.5896 47.1922 33.7417C46.5087 31.8939 45.4141 30.2255 43.9912 28.8628C42.5683 27.5001 40.8543 26.4786 38.9787 25.8755C37.103 25.2725 35.1149 25.1036 33.1644 25.3818C31.2139 25.6599 29.3522 26.3777 27.7198 27.481C26.0875 28.5842 24.7295 30.0441 23.7442 31.7502Z" fill="#CAAEF5" />
      <path d="M48 73.7704C51.4474 73.7698 54.7535 72.3999 57.191 69.962C59.6285 67.5241 60.9978 64.2178 60.9978 60.7704C60.9978 56.1554 58.6145 52.1124 54.9853 49.8071L48.4745 61.0499L47.5125 60.4909L54.006 49.2416C52.2586 48.3311 50.3271 47.8297 48.3575 47.7753C46.3879 47.721 44.4317 48.115 42.6368 48.9277C40.8418 49.7404 39.2551 50.9505 37.9965 52.4665C36.7379 53.9825 35.8404 55.7648 35.3718 57.6786C34.9032 59.5924 34.8758 61.5877 35.2916 63.5137C35.7074 65.4397 36.5555 67.246 37.7719 68.796C38.9883 70.3461 40.5412 71.5993 42.3131 72.4611C44.085 73.3229 46.0296 73.7706 48 73.7704Z" fill="#FC4C02" />
    </g>
  </g>
  <defs>
    <clipPath id="together-0">
      <rect width="96" height="96" fill="white" />
    </clipPath>
    <clipPath id="together-1">
      <rect width="52" height="52" fill="white" transform="translate(22 22)" />
    </clipPath>
  </defs>
</svg>
